<svg xmlns="http://www.w3.org/2000/svg" viewBox="0 0 120 120" fill="none" aria-hidden="true">
  <defs>
    <linearGradient id="g" x1="0" y1="0" x2="1" y2="1">
      <stop offset="0%" stop-color="#7dd3fc"/>
      <stop offset="55%" stop-color="#22d3ee"/>
      <stop offset="100%" stop-color="#0ea5e9"/>
    </linearGradient>
  </defs>
  <circle cx="60" cy="60" r="56" fill="url(#g)" opacity="0.25"/>
  <path d="M18 62c12-18 32-28 54-28 10 0 20 2 28 6-6 10-10 22-10 34 0 8 2 16 6 22-8 4-18 6-28 6-22 0-42-10-50-40z" fill="url(#g)"/>
  <path d="M86 48c10 6 16 16 16 28 0 6-2 12-4 16" stroke="#e0f2fe" stroke-width="4" stroke-linecap="round"/>
  <circle cx="44" cy="56" r="5" fill="#082f49"/>
  <path d="M22 58c6-4 14-6 22-6" stroke="#bae6fd" stroke-width="3" stroke-linecap="round"/>
</svg>
